<svg viewBox="0 0 70 54" xmlns="http://www.w3.org/2000/svg">
<path d="M61.6 1.81251C62.0265 1.3773 62.5356 1.03156 63.0974 0.795531C63.6592 0.559501 64.2625 0.437927 64.8719 0.437927C65.4813 0.437927 66.0845 0.559501 66.6463 0.795531C67.2081 1.03156 67.7172 1.3773 68.1438 1.81251C69.9313 3.61876 69.9563 6.53751 68.2063 8.37501L31.25 52.0625C30.8304 52.5233 30.3212 52.8936 29.7536 53.1508C29.186 53.408 28.5719 53.5467 27.9488 53.5584C27.3257 53.5701 26.7068 53.4545 26.1299 53.2188C25.5531 52.9831 25.0303 52.6322 24.5938 52.1875L2.10625 29.4C1.23898 28.5156 0.753174 27.3262 0.753174 26.0875C0.753174 24.8488 1.23898 23.6595 2.10625 22.775C2.53279 22.3398 3.04186 21.9941 3.60368 21.758C4.16549 21.522 4.76874 21.4004 5.37812 21.4004C5.9875 21.4004 6.59076 21.522 7.15257 21.758C7.71438 21.9941 8.22346 22.3398 8.65 22.775L27.725 42.1063L61.475 1.95002C61.5139 1.90171 61.5556 1.8558 61.6 1.81251Z"/>
</svg>
