<svg viewBox="0 0 14 70" xmlns="http://www.w3.org/2000/svg">
<path d="M0.781251 7.37501C0.694019 6.50597 0.7899 5.6283 1.06271 4.79859C1.33552 3.96889 1.7792 3.20557 2.36514 2.55787C2.95108 1.91018 3.66627 1.39248 4.46458 1.03817C5.26289 0.683853 6.12659 0.500793 7 0.500793C7.87341 0.500793 8.73712 0.683853 9.53543 1.03817C10.3337 1.39248 11.0489 1.91018 11.6349 2.55787C12.2208 3.20557 12.6645 3.96889 12.9373 4.79859C13.2101 5.6283 13.306 6.50597 13.2187 7.37501L10.7938 47.0625C10.7001 48.0036 10.2599 48.8763 9.55885 49.5111C8.85775 50.1458 7.94576 50.4974 7 50.4974C6.05424 50.4974 5.14225 50.1458 4.44115 49.5111C3.74006 48.8763 3.29993 48.0036 3.20625 47.0625L0.781251 7.37501ZM0.75 63C0.75 61.3424 1.40848 59.7527 2.58058 58.5806C3.75269 57.4085 5.3424 56.75 7 56.75C8.6576 56.75 10.2473 57.4085 11.4194 58.5806C12.5915 59.7527 13.25 61.3424 13.25 63C13.25 64.6576 12.5915 66.2473 11.4194 67.4194C10.2473 68.5915 8.6576 69.25 7 69.25C5.3424 69.25 3.75269 68.5915 2.58058 67.4194C1.40848 66.2473 0.75 64.6576 0.75 63Z"/>
</svg>
