<svg viewBox="0 0 49 76" xmlns="http://www.w3.org/2000/svg">
<path fill-rule="evenodd" clip-rule="evenodd" d="M3.96868 22.1125C2.19368 22.1125 0.756183 20.6312 1.03118 18.8812C2.74993 8.25 10.8499 0.5 24.9062 0.5C38.9687 0.5 48.4499 9 48.4499 20.5938C48.4499 28.9938 44.2937 34.8937 37.2624 39.175C30.3874 43.2937 28.4249 46.1625 28.4249 51.7375V51.925C28.4249 52.7538 28.0957 53.5487 27.5096 54.1347C26.9236 54.7208 26.1287 55.05 25.2999 55.05H20.4874C19.664 55.05 18.8739 54.7251 18.2887 54.1458C17.7035 53.5665 17.3707 52.7796 17.3624 51.9562L17.3437 50.7062C17.0749 43.075 20.3249 38.2 27.6249 33.7563C34.0624 29.8063 36.3562 26.6625 36.3562 21.0813C36.3562 14.9625 31.6187 10.4688 24.3187 10.4688C18.0124 10.4688 13.6312 13.775 12.2062 19.2313C11.7937 20.8188 10.4687 22.1125 8.83118 22.1125H3.96868ZM22.8499 75.5C26.7374 75.5 29.6937 72.5375 29.6937 68.6875C29.6937 64.825 26.7374 61.8625 22.8499 61.8625C19.0624 61.8625 16.0562 64.825 16.0562 68.6813C16.0562 72.5375 19.0624 75.5 22.8499 75.5Z"/>
</svg>
